<svg width="1024" height="1024" viewBox="0 0 1024 1024" fill="none" xmlns="http://www.w3.org/2000/svg">
<g clip-path="url(#clip0_2_2)">
<rect width="1024" height="1024" fill="#7C96EC"/>
<path d="M512 1024C794.77 1024 1024 794.77 1024 512C1024 229.23 794.77 0 512 0C229.23 0 0 229.23 0 512C0 794.77 229.23 1024 512 1024Z" fill="#7C96EC"/>
<path d="M242.522 673.154C242.522 611.889 259.078 565.94 292.189 535.308C325.3 504.675 358.411 489.359 391.522 489.359H490.855C523.966 489.359 548.8 474.043 565.355 443.41C581.911 412.778 606.744 389.803 639.855 374.487C672.966 359.171 706.078 359.171 739.189 374.487C755.744 389.803 772.3 405.12 788.855 420.436L813.689 466.385C830.244 481.701 838.522 504.675 838.522 535.308C838.522 565.94 830.244 588.915 813.689 604.231C797.133 619.547 780.578 627.205 764.022 627.205H739.189C706.078 627.205 672.966 642.521 639.855 673.154L540.522 765.051C507.411 795.684 474.3 811 441.189 811C408.078 811 374.966 803.342 341.855 788.026C308.744 772.709 283.911 749.735 267.355 719.103C250.8 703.786 242.522 688.47 242.522 673.154Z" fill="white"/>
<path d="M813.022 556C863.556 556 904.522 514.81 904.522 464C904.522 413.19 863.556 372 813.022 372C762.488 372 721.522 413.19 721.522 464C721.522 514.81 762.488 556 813.022 556Z" fill="white"/>
<path d="M891.022 516C920.017 516 943.522 498.315 943.522 476.5C943.522 454.685 920.017 437 891.022 437C862.027 437 838.522 454.685 838.522 476.5C838.522 498.315 862.027 516 891.022 516Z" fill="white"/>
<path d="M825.522 471C837.12 471 846.522 461.598 846.522 450C846.522 438.402 837.12 429 825.522 429C813.924 429 804.522 438.402 804.522 450C804.522 461.598 813.924 471 825.522 471Z" fill="#7C96EC"/>
<path d="M766.934 401C749.522 383.815 745.169 366.63 753.875 349.444C762.581 340.852 771.287 340.852 779.993 349.444C788.698 358.037 788.698 370.926 779.993 388.111L766.934 401Z" fill="white"/>
<path d="M275.46 702.529C304.657 680.678 296.629 620.612 257.529 568.367C218.429 516.123 163.063 491.485 133.866 513.336C104.669 535.187 112.697 595.254 151.797 647.498C190.897 699.742 246.263 724.381 275.46 702.529Z" fill="white"/>
<path d="M170.51 446.613C200.187 456.359 234.604 432.716 247.382 393.805C260.161 354.894 246.461 315.45 216.784 305.704C187.107 295.958 152.69 319.601 139.912 358.512C127.134 397.423 140.833 436.867 170.51 446.613Z" fill="white"/>
<path d="M174.619 565.194C206.588 563.782 230.86 525.411 228.833 479.488C226.806 433.565 199.246 397.482 167.277 398.893C135.308 400.304 111.036 438.676 113.063 484.599C115.09 530.521 142.65 566.605 174.619 565.194Z" fill="white"/>
<path d="M206.218 357.907C225.716 373.185 262.088 359.324 287.457 326.948C312.827 294.573 317.587 255.942 298.089 240.663C278.592 225.385 242.22 239.246 216.85 271.622C191.481 303.997 186.721 342.628 206.218 357.907Z" fill="white"/>
</g>
<defs>
<clipPath id="clip0_2_2">
<rect width="1024" height="1024" fill="white"/>
</clipPath>
</defs>
</svg>
