<svg xmlns="http://www.w3.org/2000/svg" width="1024" height="1024" viewBox="0 0 1024 1024" preserveAspectRatio="xMidYMid meet">
  <path d="M 258 692.5 L 206 687.5 L 180 679.5 L 161 668.5 L 149.5 658 L 140.5 643 L 137.5 632 L 139.5 606 L 149.5 585 L 171 561.5 L 196 543.5 L 235 520.5 L 247.5 509 L 265.5 467 L 279.5 446 L 308 415.5 L 339 393.5 L 359 383.5 L 387 373.5 L 429 366.5 L 461 366.5 L 485 369.5 L 583 391.5 L 605 393.5 L 622 391.5 L 633 386.5 L 638.5 381 L 631.5 356 L 630.5 344 L 634.5 323 L 646 307.5 L 666 299.5 L 686 301.5 L 707 312.5 L 737 303.5 L 767 302.5 L 792 307.5 L 807 314.5 L 825 305.5 L 846 302.5 L 854 303.5 L 867 309.5 L 877.5 321 L 883.5 339 L 883.5 351 L 880.5 367 L 871.5 388 L 871.5 421 L 892 425.5 L 899.5 430 L 893 431.5 L 870 429.5 L 859.5 451 L 889.5 468 L 884 469.5 L 855 459.5 L 847.5 469 L 827.5 512 L 809.5 540 L 787.5 566 L 754.5 595 L 760.5 623 L 765 626.5 L 788 633.5 L 798.5 643 L 801.5 655 L 795 661.5 L 767 663.5 L 744 659.5 L 733.5 651 L 718.5 629 L 715 628.5 L 705 633.5 L 702.5 638 L 720 645.5 L 729.5 653 L 735.5 665 L 733.5 675 L 727 679.5 L 714 679.5 L 713.5 667 L 709.5 658 L 700 651.5 L 685 650.5 L 681 654.5 L 691 652.5 L 704 657.5 L 709.5 663 L 710.5 675 L 703 682.5 L 685 682.5 L 673 679.5 L 661 673.5 L 647.5 661 L 594 587.5 L 521 564.5 L 517 564.5 L 511.5 573 L 494 587.5 L 456.5 600 L 462 606.5 L 471 611.5 L 498 615.5 L 509 621.5 L 516.5 635 L 510 645.5 L 503 648.5 L 444 647.5 L 435 645.5 L 421 637.5 L 380 602.5 L 353 608.5 L 353.5 615 L 363 621.5 L 379 623.5 L 401 631.5 L 413.5 642 L 417.5 652 L 412 659.5 L 405 661.5 L 359 659.5 L 316 647.5 L 303 637.5 L 279.5 612 L 271.5 600 L 260 573.5 L 226 597.5 L 217.5 607 L 217.5 616 L 227 625.5 L 239 631.5 L 279 643.5 L 292 649.5 L 304.5 660 L 307.5 665 L 308.5 674 L 305.5 681 L 295 687.5 L 277 691.5 L 258 692.5 Z" fill="#FFFFFF" stroke="none" fill-rule="evenodd"/>
</svg>
